<?xml version="1.0" standalone="no"?><!DOCTYPE svg PUBLIC "-//W3C//DTD SVG 1.1//EN" "http://www.w3.org/Graphics/SVG/1.1/DTD/svg11.dtd"><svg t="1732444699618" class="icon" viewBox="0 0 1024 1024" version="1.1" xmlns="http://www.w3.org/2000/svg" p-id="8791" xmlns:xlink="http://www.w3.org/1999/xlink" width="200" height="200"><path d="M584 452.976c96 34.192 104 94.032 176 188.064 72 94.048 32 188.08-40 213.728C648 880.416 568 920 456 896l-15.312-3.28-10.24-2.224C326.432 867.776 222.8 838.608 208 728c-16-119.68 16-138.24 136-198.08s144-111.136 240-76.944z m236.864-80.816c56.56-18.88 84.848 28.304 103.712 103.776 6.544 26.192 3.712 50.688-8.48 73.472A95.712 95.712 0 0 1 736 504.224l0.064-3.76c1.44-46.848 29.712-109.92 84.8-128.304z m-601.952-16.64c46.592 15.536 70.56 68.752 71.936 108.432l0.064 3.584a81.2 81.2 0 0 1-152.672 38.56c-10.464-19.408-12.912-40.256-7.328-62.56 16-64 40-104 88-88z m183.296-127.632c50.416 17.12 76.32 75.84 77.728 119.552l0.064 3.712a87.872 87.872 0 0 1-170.288 30.528c-6.64-17.92-7.488-36.896-2.56-56.96 17.28-70.416 43.2-114.448 95.056-96.832z m234.784-95.168C703.008 154.08 736 228.944 736 282.4c0 25.648-24.688 53.12-74.048 82.464l-5.2 3.04a96 96 0 0 1-137.36-48.16c-8.56-21.824-9.68-44.96-3.392-69.424 22-85.536 55.008-138.992 121.008-117.6z" fill="#666666" opacity=".8" p-id="8792"></path></svg>